<svg width="36" height="36" viewBox="0 0 36 36" fill="none" xmlns="http://www.w3.org/2000/svg">
<rect width="36" height="36" rx="8" fill="#F4ECFB"/>
<g clip-path="url(#clip0_268_14189)">
<path d="M19.5 14.25V9.345C20.1938 9.607 20.824 10.0135 21.3488 10.5375L23.9618 13.152C24.4864 13.6762 24.8932 14.3062 25.155 15H20.25C20.0511 15 19.8603 14.921 19.7197 14.7803C19.579 14.6397 19.5 14.4489 19.5 14.25ZM25.5 16.8637V23.25C25.4988 24.2442 25.1033 25.1973 24.4003 25.9003C23.6973 26.6033 22.7442 26.9988 21.75 27H14.25C13.2558 26.9988 12.3027 26.6033 11.5997 25.9003C10.8967 25.1973 10.5012 24.2442 10.5 23.25V12.75C10.5012 11.7558 10.8967 10.8027 11.5997 10.0997C12.3027 9.39666 13.2558 9.00119 14.25 9H17.6363C17.7585 9 17.8793 9.00975 18 9.018V14.25C18 14.8467 18.2371 15.419 18.659 15.841C19.081 16.2629 19.6533 16.5 20.25 16.5H25.482C25.4902 16.6207 25.5 16.7415 25.5 16.8637ZM21.543 19.7332C21.4059 19.5893 21.2173 19.5057 21.0186 19.5008C20.8198 19.4959 20.6273 19.5701 20.4832 19.707L17.7833 22.2803C17.7111 22.3528 17.6249 22.4099 17.5299 22.4479C17.4348 22.4859 17.3331 22.504 17.2308 22.5012C17.1285 22.4984 17.0278 22.4747 16.9351 22.4315C16.8423 22.3884 16.7593 22.3267 16.6912 22.2502L15.4995 21.1898C15.4259 21.1242 15.3402 21.0737 15.2471 21.0412C15.154 21.0088 15.0554 20.995 14.957 21.0006C14.7583 21.012 14.5722 21.1019 14.4397 21.2505C14.3742 21.3241 14.3237 21.4098 14.2912 21.5029C14.2588 21.596 14.245 21.6945 14.2506 21.793C14.262 21.9917 14.3519 22.1778 14.5005 22.3102L15.6585 23.3407C16.0783 23.7606 16.6469 23.9975 17.2406 23.9999C17.8343 24.0023 18.4049 23.77 18.828 23.3535L21.5167 20.793C21.6607 20.6559 21.7443 20.4673 21.7492 20.2686C21.7541 20.0698 21.6799 19.8773 21.543 19.7332Z" fill="#074762"/>
</g>
<defs>
<clipPath id="clip0_268_14189">
<rect width="18" height="18" fill="white" transform="translate(9 9)"/>
</clipPath>
</defs>
</svg>
