<svg width="36" height="36" viewBox="0 0 36 36" fill="none" xmlns="http://www.w3.org/2000/svg">
<rect width="36" height="36" rx="8" fill="#E9FAF7"/>
<g clip-path="url(#clip0_268_14207)">
<path d="M23.213 26.2507H23.1883C22.805 26.2447 22.4405 26.0819 22.1803 25.8007L20.7418 24.3899C20.4538 24.0922 20.4605 23.6174 20.7583 23.3294C20.759 23.3287 20.7598 23.3279 20.7605 23.3272C21.0583 23.0414 21.5308 23.0497 21.818 23.3452L23.2138 24.7124L25.7195 22.2067C26.012 21.9142 26.4875 21.9142 26.78 22.2067C27.0725 22.4992 27.0725 22.9747 26.78 23.2672L24.2143 25.8329C23.9503 26.1007 23.5895 26.2514 23.213 26.2507Z" fill="#22CAAD"/>
<path d="M19.5261 24.0114C19.5231 21.5386 21.5249 19.5316 23.9969 19.5279C24.9591 19.5264 25.8966 19.8354 26.6691 20.4091C27.9989 15.6204 25.1946 10.6606 20.4066 9.3309C15.6186 8.00115 10.6596 10.8046 9.32987 15.5934C8.00012 20.3821 10.8044 25.3426 15.5924 26.6724C17.1674 27.1096 18.8316 27.1096 20.4066 26.6724C19.8351 25.9029 19.5261 24.9699 19.5261 24.0114ZM18.7499 18.0166C18.7499 18.2161 18.6704 18.4066 18.5294 18.5476L16.2756 20.8021C15.9771 21.0901 15.5016 21.0819 15.2136 20.7834C14.9324 20.4924 14.9324 20.0304 15.2136 19.7394L17.2476 17.7054V14.2599C17.2476 13.8451 17.5836 13.5084 17.9991 13.5084C18.4139 13.5084 18.7499 13.8451 18.7499 14.2599V18.0166Z" fill="#22CAAD"/>
</g>
<defs>
<clipPath id="clip0_268_14207">
<rect width="18" height="18" fill="white" transform="translate(9 9)"/>
</clipPath>
</defs>
</svg>
