<svg width="36" height="36" viewBox="0 0 36 36" fill="none" xmlns="http://www.w3.org/2000/svg">
<rect width="36" height="36" rx="8" fill="#FEECEE"/>
<g clip-path="url(#clip0_268_14216)">
<path d="M26.0302 26.0307C25.7377 26.3232 25.2622 26.3232 24.9697 26.0307L23.9092 24.9702L22.848 26.0307C22.56 26.3285 22.0852 26.3367 21.7875 26.0495C21.4897 25.7615 21.4815 25.2867 21.7687 24.989C21.7747 24.983 21.7807 24.9762 21.7875 24.9702L22.848 23.9097L21.7875 22.8484C21.4897 22.5604 21.4815 22.0857 21.7687 21.7879C22.0567 21.4902 22.5315 21.4819 22.8292 21.7692C22.8352 21.7752 22.842 21.7812 22.848 21.7879L23.9092 22.8484L24.9697 21.7879C25.2577 21.4902 25.7325 21.4819 26.0302 21.7692C26.328 22.0572 26.3362 22.5319 26.049 22.8297C26.043 22.8357 26.037 22.8425 26.0302 22.8484L24.9697 23.9097L26.0302 24.9702C26.3242 25.2619 26.328 25.7345 26.0362 26.0285C26.0347 26.03 26.034 26.0315 26.0302 26.0307Z" fill="#EB3D4D"/>
<path d="M19.5261 24.0114C19.5231 21.5386 21.5249 19.5316 23.9969 19.5279C24.9591 19.5264 25.8966 19.8354 26.6691 20.4091C27.9989 15.6204 25.1946 10.6606 20.4066 9.3309C15.6186 8.00115 10.6596 10.8046 9.32987 15.5934C8.00012 20.3821 10.8044 25.3426 15.5924 26.6724C17.1674 27.1096 18.8316 27.1096 20.4066 26.6724C19.8351 25.9029 19.5261 24.9699 19.5261 24.0114ZM18.7499 18.0166C18.7499 18.2161 18.6704 18.4066 18.5294 18.5476L16.2756 20.8021C15.9771 21.0901 15.5016 21.0819 15.2136 20.7834C14.9324 20.4924 14.9324 20.0304 15.2136 19.7394L17.2476 17.7054V14.2599C17.2476 13.8451 17.5836 13.5084 17.9991 13.5084C18.4139 13.5084 18.7499 13.8451 18.7499 14.2599V18.0166Z" fill="#EB3D4D"/>
</g>
<defs>
<clipPath id="clip0_268_14216">
<rect width="18" height="18" fill="white" transform="translate(9 9)"/>
</clipPath>
</defs>
</svg>
